<?xml version="1.0" encoding="UTF-8" standalone="no"?>
<!-- Created with Inkscape (http://www.inkscape.org/) -->

<svg
   width="512"
   height="512"
   viewBox="0 0 512 512"
   version="1.1"
   id="svg5"
   xml:space="preserve"
   inkscape:version="1.2 (dc2aedaf03, 2022-05-15)"
   sodipodi:docname="dinovel_icon_raw.svg"
   inkscape:export-filename="..\dinovel\docs\_media\icon.svg"
   inkscape:export-xdpi="96"
   inkscape:export-ydpi="96"
   xmlns:inkscape="http://www.inkscape.org/namespaces/inkscape"
   xmlns:sodipodi="http://sodipodi.sourceforge.net/DTD/sodipodi-0.dtd"
   xmlns="http://www.w3.org/2000/svg"
   xmlns:svg="http://www.w3.org/2000/svg"><sodipodi:namedview
     id="namedview7"
     pagecolor="#ffffff"
     bordercolor="#000000"
     borderopacity="0.25"
     inkscape:showpageshadow="2"
     inkscape:pageopacity="0.0"
     inkscape:pagecheckerboard="0"
     inkscape:deskcolor="#d1d1d1"
     inkscape:document-units="px"
     showgrid="false"
     inkscape:zoom="1.1449053"
     inkscape:cx="197.83295"
     inkscape:cy="225.34615"
     inkscape:window-width="2560"
     inkscape:window-height="1009"
     inkscape:window-x="614"
     inkscape:window-y="1072"
     inkscape:window-maximized="1"
     inkscape:current-layer="layer1"><inkscape:grid
       type="xygrid"
       id="grid2113" /></sodipodi:namedview><defs
     id="defs2" /><g
     inkscape:label="Dinovel"
     inkscape:groupmode="layer"
     id="layer1"
     style="display:inline"><g
       id="g3852"
       transform="matrix(1.10823,0,0,1.10823,20.476909,1.6588846)"
       inkscape:label="Dino"><g
         id="XMLID_1301_">
	<path
   id="XMLID_1302_"
   style="fill:#ff0c60;fill-opacity:1"
   d="M 409.225,294.368 V 340.5 h 30 v -95.545 c -0.001,19.163 -12.917,39.71 -30,49.413 z" />
	<path
   id="XMLID_1303_"
   style="fill:#ca1654;fill-opacity:1"
   d="m 439.225,50 c 0,-27.5 -22.5,-50 -50,-50 h -20 c -16.5,0 -30,13.5 -30,30 v 20 h 39.786 v 108.391 h -66.365 c -57.25,0 -105.623,38.008 -121.263,90.167 0.009,0.003 60.742,0.003 60.742,0.003 41.173,0 74.86,33.687 74.86,74.86 l 52.24,-17.896 v -0.268 l -0.013,-0.05 v 0.05 c -16.492,0 -29.987,-13.506 -29.987,-30.011 l 0.013,-34.989 h 29.987 l -0.007,35.048 c 0.007,-0.025 30.007,-0.025 30.007,-0.025 v 19.089 c 17.083,-9.703 29.999,-30.25 30,-49.413 0,-0.003 0,-194.956 0,-194.956 z" />
	<path
   id="XMLID_1304_"
   style="fill:#ff0c60;fill-opacity:1"
   d="m 239.367,273.338 c 0,-8.748 1.677,-17.101 4.697,-24.777 h -52.672 c -3.458,11.533 -5.324,23.752 -5.324,36.409 0,41.071 0,94.996 0,94.996 0,22.065 -17.952,40.017 -40.017,40.017 H 20.775 V 460 h 125.276 c 44.131,0 80.034,-35.903 80.034,-80.034 v -13.5 h 55.795 v -30.27 c -24.913,-10.004 -42.513,-34.368 -42.513,-62.858 z" />
	<path
   id="XMLID_1305_"
   style="fill:#a4c662"
   d="m 326.88,366.466 c 0.065,0 0.105,0 0.105,0 v -28.374 c -0.035,0.011 -0.07,0.019 -0.105,0.03 z" />
	<path
   id="XMLID_1306_"
   style="fill:#ff3f81;fill-opacity:1"
   d="m 326.985,323.42 c 0,-41.173 -33.687,-74.86 -74.86,-74.86 h -8.061 c -3.02,7.677 -4.697,16.029 -4.697,24.777 0,28.49 17.6,52.854 42.513,62.858 V 460 h 45 V 338.122 c 0.035,-0.011 0.07,-0.019 0.105,-0.03 z" />
	<path
   id="XMLID_1307_"
   style="fill:#ff3f81;fill-opacity:1"
   d="m 409.225,275.279 h -30 c -0.007,0.025 0,-35.023 0,-35.023 h -29.987 l -0.013,34.989 c 0,16.505 13.495,30.011 29.987,30.011 v -0.05 l 0.013,0.05 v 35.023 h 30 z" />
</g><g
         id="g3795">
</g><g
         id="g3797">
</g><g
         id="g3799">
</g><g
         id="g3801">
</g><g
         id="g3803">
</g><g
         id="g3805">
</g><g
         id="g3807">
</g><g
         id="g3809">
</g><g
         id="g3811">
</g><g
         id="g3813">
</g><g
         id="g3815">
</g><g
         id="g3817">
</g><g
         id="g3819">
</g><g
         id="g3821">
</g><g
         id="g3823">
</g></g><g
       id="g6752"
       transform="matrix(0.8725421,-0.8725421,0.8725421,0.8725421,-96.278953,160.24522)"><g
         id="g6694">
	<path
   style="fill:#ca1654;fill-opacity:1"
   d="M 291.769,164.257 259.826,87.418 c -0.067,-0.161 -0.139,-0.321 -0.216,-0.477 -12.686,-25.945 -44.114,-36.73 -70.061,-24.045 -3.161,1.546 -6.16,3.409 -8.951,5.557 h -64.197 c -2.79,-2.148 -5.789,-4.011 -8.952,-5.557 -25.942,-12.685 -57.374,-1.901 -70.06,24.045 -0.077,0.156 -0.148,0.316 -0.216,0.477 L 5.231,164.257 c -6.037,12.507 -6.88,26.618 -2.368,39.764 4.541,13.232 13.964,23.905 26.532,30.05 12.57,6.147 26.778,7.029 40.011,2.488 13.232,-4.542 23.904,-13.965 30.05,-26.532 l 5.226,-10.687 h 87.635 l 5.226,10.686 c 6.146,12.568 16.817,21.991 30.05,26.533 5.574,1.913 11.321,2.863 17.047,2.863 7.866,0 15.69,-1.794 22.963,-5.352 12.569,-6.145 21.992,-16.817 26.533,-30.05 4.513,-13.145 3.669,-27.256 -2.367,-39.763 z"
   id="path6684" />
	<path
   style="fill:#ff0c60;fill-opacity:1"
   d="M 291.769,164.257 259.826,87.418 c -0.067,-0.161 -0.139,-0.321 -0.216,-0.477 -12.686,-25.945 -44.114,-36.73 -70.061,-24.045 -3.161,1.546 -6.16,3.409 -8.951,5.557 h -33.45 v 130.888 h 45.169 l 5.226,10.686 c 6.146,12.568 16.817,21.991 30.05,26.533 5.574,1.913 11.321,2.863 17.047,2.863 7.866,0 15.69,-1.794 22.963,-5.352 12.569,-6.145 21.992,-16.817 26.533,-30.05 4.513,-13.146 3.669,-27.257 -2.367,-39.764 z"
   id="path6686" />
	<g
   id="g6692">
		<path
   style="fill:#ff3f81;fill-opacity:1"
   d="m 92.756,98.368 c -16.487,0 -29.899,13.413 -29.899,29.899 0,16.486 13.413,29.899 29.899,29.899 16.486,0 29.899,-13.413 29.899,-29.899 0,-16.486 -13.413,-29.899 -29.899,-29.899 z"
   id="path6688" />
		<path
   style="fill:#ff3f81;fill-opacity:1"
   d="m 202.217,98.368 c -16.487,0 -29.899,13.413 -29.899,29.899 0,16.486 13.413,29.899 29.899,29.899 16.486,0 29.899,-13.413 29.899,-29.899 0,-16.486 -13.412,-29.899 -29.899,-29.899 z"
   id="path6690" />
	</g>
</g><g
         id="g6696">
</g><g
         id="g6698">
</g><g
         id="g6700">
</g><g
         id="g6702">
</g><g
         id="g6704">
</g><g
         id="g6706">
</g><g
         id="g6708">
</g><g
         id="g6710">
</g><g
         id="g6712">
</g><g
         id="g6714">
</g><g
         id="g6716">
</g><g
         id="g6718">
</g><g
         id="g6720">
</g><g
         id="g6722">
</g><g
         id="g6724">
</g></g></g></svg>
